<svg width="98" height="32" viewBox="0 0 98 32" fill="none" xmlns="http://www.w3.org/2000/svg">
<path d="M37.3008 0H55.6846L60.6895 5.00492V26.848L55.6846 31.8529H37.3008V0Z" fill="#FFFF00"/>
<path d="M48.248 9.19951V7.65625H49.3259V9.19951L50.4145 8.10973L51.1778 8.87305L50.0892 9.96283H51.6325V11.0396H50.0892L51.1778 12.1293L50.4145 12.8927L49.3259 11.8029V13.3461H48.248V11.8029L47.1594 12.8927L46.3949 12.1293L47.4847 11.0396H45.9414V9.96283H47.4847L46.3949 8.87305L47.1594 8.10973L48.248 9.19951Z" fill="white"/>
<path d="M0 7.65625H9.54449L12.1443 10.2561V21.5955L9.54449 24.1953H0V7.65625ZM8.74199 22.5879L10.3482 21.0055V10.8461L8.74199 9.26362H1.79612V22.5879H8.74199Z" fill="white"/>
<path d="M16.8653 7.65625H27.5494V9.26361H18.6602V15.0805H26.8585V16.6867H18.6602V22.5927H27.5435V24.2H16.8594L16.8653 7.65625Z" fill="white"/>
<path d="M30.5 7.65625H32.3662L37.2809 22.0454H37.3283L42.2419 7.65625H44.108L38.2733 24.1953H36.3359L30.5 7.65625Z" fill="white"/>
<path d="M47.8906 15.2227H49.6856V24.1973H47.8906V15.2227Z" fill="white"/>
<path d="M54.0586 22.4229L63.1995 9.23987V9.19239H54.296V7.65625H65.1167V9.42863L55.9758 22.6117V22.6591H65.1167V24.1953H54.0586V22.4229Z" fill="white"/>
<path d="M69.1289 21.5955V7.65625H70.925V21.0055L72.5312 22.5879H77.9184L79.5246 21.0055V7.65625H81.3195V21.5955L78.7209 24.1953H71.7275L69.1289 21.5955Z" fill="white"/>
<path d="M97.9994 19.1393V24.1953H96.2032V19.6355L93.9358 17.2494H88.0762V24.1953H86.2812V7.65625H95.7308L97.9091 9.82988V15.0532L95.9955 16.9669L97.9994 19.1393ZM88.0762 15.6883H94.952L96.1332 14.5309V10.376L94.952 9.2185H88.0762V15.6883Z" fill="white"/>
<mask id="mask0_1931_55343" style="mask-type:luminance" maskUnits="userSpaceOnUse" x="37" y="0" width="24" height="32">
<path d="M37.3008 0H55.6846L60.6895 5.00492V26.848L55.6846 31.8529H37.3008V0Z" fill="white"/>
</mask>
<g mask="url(#mask0_1931_55343)">
<path d="M48.248 9.19951V7.65625H49.3259V9.19951L50.4145 8.10973L51.1778 8.87305L50.0892 9.96283H51.6325V11.0396H50.0892L51.1778 12.1293L50.4145 12.8927L49.3259 11.8029V13.3461H48.248V11.8029L47.1594 12.8927L46.3949 12.1293L47.4847 11.0396H45.9414V9.96283H47.4847L46.3949 8.87305L47.1594 8.10973L48.248 9.19951Z" fill="black"/>
<path d="M30.5 7.65625H32.3662L37.2809 22.0454H37.3283L42.2419 7.65625H44.108L38.2733 24.1953H36.3359L30.5 7.65625Z" fill="black"/>
<path d="M47.8906 15.2227H49.6856V24.1973H47.8906V15.2227Z" fill="black"/>
<path d="M54.0586 22.4229L63.1995 9.23987V9.19239H54.296V7.65625H65.1167V9.42863L55.9758 22.6117V22.6591H65.1167V24.1953H54.0586V22.4229Z" fill="black"/>
</g>
</svg>
